<mxfile host="app.diagrams.net" agent="Mozilla/5.0 (Macintosh; Intel Mac OS X 10_15_7) AppleWebKit/537.36 (KHTML, like Gecko) Chrome/129.0.0.0 Safari/537.36" version="24.7.16">
  <diagram name="Page-1" id="af3GiCEYY3vB2YST6jNT">
    <mxGraphModel dx="770" dy="626" grid="1" gridSize="10" guides="1" tooltips="1" connect="1" arrows="1" fold="1" page="1" pageScale="1" pageWidth="827" pageHeight="1169" math="0" shadow="0">
      <root>
        <mxCell id="0" />
        <mxCell id="1" parent="0" />
        <mxCell id="gZo7H2MPHsvTxoAo6SyU-7" style="edgeStyle=orthogonalEdgeStyle;rounded=0;orthogonalLoop=1;jettySize=auto;html=1;exitX=0.5;exitY=1;exitDx=0;exitDy=0;" edge="1" parent="1" source="gZo7H2MPHsvTxoAo6SyU-1" target="gZo7H2MPHsvTxoAo6SyU-4">
          <mxGeometry relative="1" as="geometry" />
        </mxCell>
        <mxCell id="gZo7H2MPHsvTxoAo6SyU-1" value="Firebase RTB&lt;div&gt;Chats&lt;/div&gt;" style="rounded=0;whiteSpace=wrap;html=1;" vertex="1" parent="1">
          <mxGeometry x="40" y="170" width="120" height="60" as="geometry" />
        </mxCell>
        <mxCell id="gZo7H2MPHsvTxoAo6SyU-6" style="edgeStyle=orthogonalEdgeStyle;rounded=0;orthogonalLoop=1;jettySize=auto;html=1;exitX=0.5;exitY=0;exitDx=0;exitDy=0;entryX=0.5;entryY=0;entryDx=0;entryDy=0;" edge="1" parent="1" source="gZo7H2MPHsvTxoAo6SyU-2" target="gZo7H2MPHsvTxoAo6SyU-1">
          <mxGeometry relative="1" as="geometry" />
        </mxCell>
        <mxCell id="gZo7H2MPHsvTxoAo6SyU-2" value="Cloud Function&lt;div&gt;user triggered&lt;/div&gt;" style="rounded=0;whiteSpace=wrap;html=1;" vertex="1" parent="1">
          <mxGeometry x="280" y="110" width="120" height="60" as="geometry" />
        </mxCell>
        <mxCell id="gZo7H2MPHsvTxoAo6SyU-8" style="edgeStyle=orthogonalEdgeStyle;rounded=0;orthogonalLoop=1;jettySize=auto;html=1;exitX=0;exitY=0.5;exitDx=0;exitDy=0;entryX=1;entryY=0.5;entryDx=0;entryDy=0;" edge="1" parent="1" source="gZo7H2MPHsvTxoAo6SyU-3" target="gZo7H2MPHsvTxoAo6SyU-1">
          <mxGeometry relative="1" as="geometry">
            <Array as="points">
              <mxPoint x="240" y="260" />
              <mxPoint x="240" y="200" />
            </Array>
          </mxGeometry>
        </mxCell>
        <mxCell id="gZo7H2MPHsvTxoAo6SyU-3" value="Cloud Function&lt;div&gt;timer triggered&lt;/div&gt;" style="rounded=0;whiteSpace=wrap;html=1;" vertex="1" parent="1">
          <mxGeometry x="280" y="230" width="120" height="60" as="geometry" />
        </mxCell>
        <mxCell id="gZo7H2MPHsvTxoAo6SyU-10" value="" style="edgeStyle=orthogonalEdgeStyle;rounded=0;orthogonalLoop=1;jettySize=auto;html=1;" edge="1" parent="1" source="gZo7H2MPHsvTxoAo6SyU-4" target="gZo7H2MPHsvTxoAo6SyU-9">
          <mxGeometry relative="1" as="geometry" />
        </mxCell>
        <mxCell id="gZo7H2MPHsvTxoAo6SyU-12" style="edgeStyle=orthogonalEdgeStyle;rounded=0;orthogonalLoop=1;jettySize=auto;html=1;exitX=1;exitY=0.5;exitDx=0;exitDy=0;entryX=0;entryY=0.5;entryDx=0;entryDy=0;" edge="1" parent="1" source="gZo7H2MPHsvTxoAo6SyU-4" target="gZo7H2MPHsvTxoAo6SyU-11">
          <mxGeometry relative="1" as="geometry" />
        </mxCell>
        <mxCell id="gZo7H2MPHsvTxoAo6SyU-4" value="App UI" style="rounded=0;whiteSpace=wrap;html=1;" vertex="1" parent="1">
          <mxGeometry x="40" y="330" width="120" height="60" as="geometry" />
        </mxCell>
        <mxCell id="gZo7H2MPHsvTxoAo6SyU-13" style="edgeStyle=orthogonalEdgeStyle;rounded=0;orthogonalLoop=1;jettySize=auto;html=1;exitX=1;exitY=0.5;exitDx=0;exitDy=0;entryX=1;entryY=0.5;entryDx=0;entryDy=0;" edge="1" parent="1" source="gZo7H2MPHsvTxoAo6SyU-9" target="gZo7H2MPHsvTxoAo6SyU-2">
          <mxGeometry relative="1" as="geometry">
            <Array as="points">
              <mxPoint x="440" y="360" />
              <mxPoint x="440" y="140" />
            </Array>
          </mxGeometry>
        </mxCell>
        <mxCell id="gZo7H2MPHsvTxoAo6SyU-9" value="Dialogue" style="whiteSpace=wrap;html=1;rounded=0;" vertex="1" parent="1">
          <mxGeometry x="280" y="330" width="120" height="60" as="geometry" />
        </mxCell>
        <mxCell id="gZo7H2MPHsvTxoAo6SyU-16" value="" style="edgeStyle=orthogonalEdgeStyle;rounded=0;orthogonalLoop=1;jettySize=auto;html=1;" edge="1" parent="1" source="gZo7H2MPHsvTxoAo6SyU-11" target="gZo7H2MPHsvTxoAo6SyU-15">
          <mxGeometry relative="1" as="geometry" />
        </mxCell>
        <mxCell id="gZo7H2MPHsvTxoAo6SyU-11" value="Create/Edit" style="whiteSpace=wrap;html=1;rounded=0;" vertex="1" parent="1">
          <mxGeometry x="280" y="410" width="120" height="60" as="geometry" />
        </mxCell>
        <mxCell id="gZo7H2MPHsvTxoAo6SyU-17" style="edgeStyle=orthogonalEdgeStyle;rounded=0;orthogonalLoop=1;jettySize=auto;html=1;exitX=0.5;exitY=0;exitDx=0;exitDy=0;entryX=1;entryY=0.5;entryDx=0;entryDy=0;" edge="1" parent="1" source="gZo7H2MPHsvTxoAo6SyU-15" target="gZo7H2MPHsvTxoAo6SyU-3">
          <mxGeometry relative="1" as="geometry" />
        </mxCell>
        <mxCell id="gZo7H2MPHsvTxoAo6SyU-15" value="Pub Sub Create/Edit" style="ellipse;whiteSpace=wrap;html=1;rounded=0;" vertex="1" parent="1">
          <mxGeometry x="460" y="400" width="80" height="80" as="geometry" />
        </mxCell>
      </root>
    </mxGraphModel>
  </diagram>
</mxfile>
